<svg xmlns="http://www.w3.org/2000/svg" viewBox="0 0 512 512" role="img" aria-labelledby="title">
  <title id="title">Atlas biblique interactif</title>
  <defs>
    <linearGradient id="background" x1="72" y1="56" x2="440" y2="456" gradientUnits="userSpaceOnUse">
      <stop stop-color="#4f46e5"/>
      <stop offset="0.56" stop-color="#4338ca"/>
      <stop offset="1" stop-color="#0891b2"/>
    </linearGradient>
    <linearGradient id="page" x1="138" y1="164" x2="374" y2="370" gradientUnits="userSpaceOnUse">
      <stop stop-color="#ffffff"/>
      <stop offset="1" stop-color="#e0f2fe"/>
    </linearGradient>
    <filter id="shadow" x="-20%" y="-20%" width="140%" height="150%">
      <feDropShadow dx="0" dy="16" stdDeviation="16" flood-color="#172554" flood-opacity=".28"/>
    </filter>
  </defs>
  <rect width="512" height="512" rx="112" fill="url(#background)"/>
  <circle cx="420" cy="108" r="92" fill="#67e8f9" opacity=".13"/>
  <circle cx="88" cy="428" r="116" fill="#c4b5fd" opacity=".12"/>
  <g filter="url(#shadow)">
    <path d="M94 151c62-19 116-6 162 30v211c-46-35-100-48-162-30V151Z" fill="url(#page)"/>
    <path d="M418 151c-62-19-116-6-162 30v211c46-35 100-48 162-30V151Z" fill="url(#page)"/>
    <path d="M256 181v211" stroke="#a5b4fc" stroke-width="10" stroke-linecap="round"/>
    <path d="M117 180c48-12 87-3 117 19M117 215c42-10 78-5 109 13M117 250c35-8 67-5 96 8" fill="none" stroke="#818cf8" stroke-width="10" stroke-linecap="round" opacity=".74"/>
    <path d="M278 332c30-62 62-88 103-112" fill="none" stroke="#0891b2" stroke-width="13" stroke-linecap="round" stroke-dasharray="2 25"/>
    <path d="M363 197c0-31-25-56-56-56s-56 25-56 56c0 43 56 98 56 98s56-55 56-98Z" fill="#06b6d4"/>
    <circle cx="307" cy="197" r="20" fill="#ecfeff"/>
  </g>
</svg>
